<?xml version="1.0" encoding="UTF-8"?>
<svg version="1.1" xmlns="http://www.w3.org/2000/svg" width="30" height="30">
<path d="M0 0 C-0.53925096 4.0426427 -2.54542594 5.93212706 -5.3671875 8.765625 C-6.25277344 9.65507812 -7.13835938 10.54453125 -8.05078125 11.4609375 C-8.98277344 12.38132812 -9.91476563 13.30171875 -10.875 14.25 C-12.26138672 15.65378906 -12.26138672 15.65378906 -13.67578125 17.0859375 C-14.56394531 17.97023438 -15.45210937 18.85453125 -16.3671875 19.765625 C-17.59091064 20.98427246 -17.59091064 20.98427246 -18.83935547 22.22753906 C-21 24 -21 24 -24 24 C-23.46074904 19.9573573 -21.45457406 18.06787294 -18.6328125 15.234375 C-17.74722656 14.34492188 -16.86164062 13.45546875 -15.94921875 12.5390625 C-15.01722656 11.61867188 -14.08523438 10.69828125 -13.125 9.75 C-12.20074219 8.81414063 -11.27648437 7.87828125 -10.32421875 6.9140625 C-9.43605469 6.02976562 -8.54789063 5.14546875 -7.6328125 4.234375 C-6.81699707 3.42194336 -6.00118164 2.60951172 -5.16064453 1.77246094 C-3 0 -3 0 0 0 Z " fill="#000000" transform="translate(27,3)"/>
</svg>
